<mxfile host="app.diagrams.net" modified="2023-08-30T17:14:55.669Z" agent="Mozilla/5.0 (Windows NT 10.0; Win64; x64) AppleWebKit/537.36 (KHTML, like Gecko) Chrome/116.0.0.0 Safari/537.36" etag="rXds8L1MI1GwfZI_xxm8" version="21.7.0" type="github">
  <diagram name="Page-1" id="8ce9d11a-91a2-4d17-14d8-a56ed91bf033">
    <mxGraphModel dx="1434" dy="790" grid="1" gridSize="10" guides="1" tooltips="1" connect="1" arrows="1" fold="1" page="1" pageScale="1" pageWidth="1100" pageHeight="850" background="none" math="0" shadow="0">
      <root>
        <mxCell id="0" />
        <mxCell id="1" parent="0" />
        <mxCell id="ap2QIofko-pct4UbqA4g-4" value="" style="edgeStyle=orthogonalEdgeStyle;rounded=1;orthogonalLoop=1;jettySize=auto;html=1;fontFamily=Verdana;shadow=0;" edge="1" parent="1" source="ap2QIofko-pct4UbqA4g-2" target="ap2QIofko-pct4UbqA4g-3">
          <mxGeometry relative="1" as="geometry" />
        </mxCell>
        <mxCell id="ap2QIofko-pct4UbqA4g-2" value="Inicio" style="strokeWidth=2;html=1;shape=mxgraph.flowchart.start_1;whiteSpace=wrap;rounded=1;fontFamily=Verdana;shadow=0;fillColor=#fff2cc;strokeColor=#d6b656;" vertex="1" parent="1">
          <mxGeometry x="47.5" y="40" width="105" height="70" as="geometry" />
        </mxCell>
        <mxCell id="ap2QIofko-pct4UbqA4g-6" value="" style="edgeStyle=orthogonalEdgeStyle;rounded=1;orthogonalLoop=1;jettySize=auto;html=1;fontFamily=Verdana;shadow=0;" edge="1" parent="1" source="ap2QIofko-pct4UbqA4g-3" target="ap2QIofko-pct4UbqA4g-5">
          <mxGeometry relative="1" as="geometry" />
        </mxCell>
        <mxCell id="ap2QIofko-pct4UbqA4g-3" value="Nome" style="html=1;strokeWidth=2;shape=manualInput;whiteSpace=wrap;rounded=1;size=26;arcSize=11;fontFamily=Verdana;shadow=0;fillColor=#f89abc;strokeColor=#b85450;" vertex="1" parent="1">
          <mxGeometry x="40" y="150" width="120" height="80" as="geometry" />
        </mxCell>
        <mxCell id="ap2QIofko-pct4UbqA4g-10" value="" style="edgeStyle=orthogonalEdgeStyle;rounded=1;orthogonalLoop=1;jettySize=auto;html=1;fontFamily=Verdana;shadow=0;" edge="1" parent="1" source="ap2QIofko-pct4UbqA4g-5" target="ap2QIofko-pct4UbqA4g-7">
          <mxGeometry relative="1" as="geometry" />
        </mxCell>
        <mxCell id="ap2QIofko-pct4UbqA4g-5" value="Data de nascimento" style="html=1;strokeWidth=2;shape=manualInput;whiteSpace=wrap;rounded=1;size=26;arcSize=11;fontFamily=Verdana;shadow=0;fillColor=#F89ABC;strokeColor=#b85450;" vertex="1" parent="1">
          <mxGeometry x="40" y="270" width="120" height="90" as="geometry" />
        </mxCell>
        <mxCell id="ap2QIofko-pct4UbqA4g-13" value="" style="edgeStyle=orthogonalEdgeStyle;rounded=1;hachureGap=4;orthogonalLoop=1;jettySize=auto;html=1;fontFamily=Architects Daughter;fontSource=https%3A%2F%2Ffonts.googleapis.com%2Fcss%3Ffamily%3DArchitects%2BDaughter;fontSize=16;" edge="1" parent="1" source="ap2QIofko-pct4UbqA4g-7" target="ap2QIofko-pct4UbqA4g-11">
          <mxGeometry relative="1" as="geometry" />
        </mxCell>
        <mxCell id="ap2QIofko-pct4UbqA4g-7" value="“Seu nome é&amp;nbsp; e você nasceu em ”" style="strokeWidth=2;html=1;shape=mxgraph.flowchart.display;whiteSpace=wrap;rounded=1;fontFamily=Verdana;shadow=0;fillColor=#ffe6cc;strokeColor=#d79b00;" vertex="1" parent="1">
          <mxGeometry x="200" y="275" width="120" height="80" as="geometry" />
        </mxCell>
        <mxCell id="ap2QIofko-pct4UbqA4g-11" value="Fim" style="strokeWidth=2;html=1;shape=mxgraph.flowchart.start_1;whiteSpace=wrap;rounded=1;fontFamily=Verdana;shadow=0;fillColor=#fff2cc;strokeColor=#d6b656;" vertex="1" parent="1">
          <mxGeometry x="380" y="280" width="105" height="70" as="geometry" />
        </mxCell>
      </root>
    </mxGraphModel>
  </diagram>
</mxfile>
